# xmcd
#
# Track frame offsets:
#	150
#	12734
#	24416
#	34178
#	47125
#	59552
#	73054
#	85861
#	99578
#	113163
#	124475
#	138514
#	149309
#	159636
#	172637
#	190732
#	205549
#	219016
#	235993
#	253310
#	270927
#	285596
#	307793
#	319013
#
# Disc length: 4687 seconds
#
# Revision: 0
# Processed by: cddbd v1.5.2PL0 Copyright (c) Steve Scherf et al.
# Submitted via: dBpowerAMP V4.0
#
DISCID=54124d18
DTITLE=Marvin Gaye - The very Best Of Marvin Gaye
DYEAR=1900
DGENRE=Soul
TTITLE0=01.Stubborn Kind Of Fellow 
TTITLE1=02.Hitch Hike 
TTITLE2=03.Pride And Joy 
TTITLE3=04.Can I Get A Witness 
TTITLE4=05.You're A Wonderful One 
TTITLE5=06.How Sweet It Is (To Be Loved By You) 
TTITLE6=07.I'll Be Doggone 
TTITLE7=08.Ain't That Peculiar 
TTITLE8=09.It Takes Two 
TTITLE9=10.Ain't No Mountain High Enough 
TTITLE10=11.Your Precious Love 
TTITLE11=12. If I Could Build My Whole World Around You 
TTITLE12=13.Ain't Nothing Like The Real Thing 
TTITLE13=14.You're All I Need To Get By 
TTITLE14=15.Sexual Healing 
TTITLE15=16.I Heard It Through The Grapevine 
TTITLE16=17.Too Busy Thinking About My Baby 
TTITLE17=18.That's The Way Love Is 
TTITLE18=19.His Eye Is On The Sparrow 
TTITLE19=20.What's Going On 
TTITLE20=21.Mercy Mercy Me (The Ecology) 
TTITLE21=22.Let's Get It On 
TTITLE22=23.You
TTITLE23=24.Ego Tripping Out 
EXTD=
EXTT0=
EXTT1=
EXTT2=
EXTT3=
EXTT4=
EXTT5=
EXTT6=
EXTT7=
EXTT8=
EXTT9=
EXTT10=
EXTT11=
EXTT12=
EXTT13=
EXTT14=
EXTT15=
EXTT16=
EXTT17=
EXTT18=
EXTT19=
EXTT20=
EXTT21=
EXTT22=
EXTT23=
PLAYORDER=
